<mxfile host="app.diagrams.net" modified="2023-08-02T11:03:37.041Z" agent="Mozilla/5.0 (Windows NT 10.0; Win64; x64) AppleWebKit/537.36 (KHTML, like Gecko) Chrome/115.0.0.0 Safari/537.36" etag="3nvY0So5mJzEggRhAbIA" version="21.3.4" type="device">
  <diagram id="W3dB_e_FqcNMpbOnUvta" name="Page-1">
    <mxGraphModel dx="1593" dy="849" grid="1" gridSize="10" guides="1" tooltips="1" connect="1" arrows="1" fold="1" page="1" pageScale="1" pageWidth="827" pageHeight="1169" math="0" shadow="0">
      <root>
        <mxCell id="0" />
        <mxCell id="1" parent="0" />
        <mxCell id="-b-LSKTsYq41hwtXcH0K-13" style="edgeStyle=orthogonalEdgeStyle;rounded=0;orthogonalLoop=1;jettySize=auto;html=1;endArrow=none;endFill=0;labelBackgroundColor=none;fontColor=default;" edge="1" parent="1" source="-b-LSKTsYq41hwtXcH0K-2" target="-b-LSKTsYq41hwtXcH0K-4">
          <mxGeometry relative="1" as="geometry" />
        </mxCell>
        <mxCell id="-b-LSKTsYq41hwtXcH0K-2" value="Ingredients" style="rounded=0;whiteSpace=wrap;html=1;labelBackgroundColor=none;fillColor=#3333FF;" vertex="1" parent="1">
          <mxGeometry x="119" y="530" width="160" height="90" as="geometry" />
        </mxCell>
        <mxCell id="-b-LSKTsYq41hwtXcH0K-3" value="Recipe" style="rounded=0;whiteSpace=wrap;html=1;labelBackgroundColor=none;gradientColor=none;fillStyle=solid;fillColor=#FF6666;" vertex="1" parent="1">
          <mxGeometry x="560" y="530" width="160" height="90" as="geometry" />
        </mxCell>
        <mxCell id="-b-LSKTsYq41hwtXcH0K-14" style="edgeStyle=orthogonalEdgeStyle;rounded=0;orthogonalLoop=1;jettySize=auto;html=1;entryX=0;entryY=0.5;entryDx=0;entryDy=0;endArrow=none;endFill=0;labelBackgroundColor=none;fontColor=default;" edge="1" parent="1" source="-b-LSKTsYq41hwtXcH0K-4" target="-b-LSKTsYq41hwtXcH0K-3">
          <mxGeometry relative="1" as="geometry">
            <mxPoint x="570" y="575" as="targetPoint" />
          </mxGeometry>
        </mxCell>
        <mxCell id="-b-LSKTsYq41hwtXcH0K-4" value="contains" style="rhombus;whiteSpace=wrap;html=1;labelBackgroundColor=none;rounded=0;" vertex="1" parent="1">
          <mxGeometry x="370" y="535" width="80" height="80" as="geometry" />
        </mxCell>
        <mxCell id="-b-LSKTsYq41hwtXcH0K-6" value="IngredientCategory" style="rounded=0;whiteSpace=wrap;html=1;labelBackgroundColor=none;" vertex="1" parent="1">
          <mxGeometry x="119" y="830" width="160" height="90" as="geometry" />
        </mxCell>
        <mxCell id="-b-LSKTsYq41hwtXcH0K-10" style="edgeStyle=orthogonalEdgeStyle;rounded=0;orthogonalLoop=1;jettySize=auto;html=1;exitX=0.5;exitY=1;exitDx=0;exitDy=0;entryX=0.5;entryY=0;entryDx=0;entryDy=0;endArrow=none;endFill=0;labelBackgroundColor=none;fontColor=default;" edge="1" parent="1" source="-b-LSKTsYq41hwtXcH0K-8" target="-b-LSKTsYq41hwtXcH0K-6">
          <mxGeometry relative="1" as="geometry" />
        </mxCell>
        <mxCell id="-b-LSKTsYq41hwtXcH0K-8" value="is" style="rhombus;whiteSpace=wrap;html=1;labelBackgroundColor=none;rounded=0;" vertex="1" parent="1">
          <mxGeometry x="159" y="690" width="80" height="80" as="geometry" />
        </mxCell>
        <mxCell id="-b-LSKTsYq41hwtXcH0K-9" value="" style="endArrow=none;html=1;rounded=0;exitX=0.5;exitY=0;exitDx=0;exitDy=0;labelBackgroundColor=none;fontColor=default;" edge="1" parent="1" source="-b-LSKTsYq41hwtXcH0K-8">
          <mxGeometry width="50" height="50" relative="1" as="geometry">
            <mxPoint x="149" y="670" as="sourcePoint" />
            <mxPoint x="199" y="620" as="targetPoint" />
          </mxGeometry>
        </mxCell>
        <mxCell id="-b-LSKTsYq41hwtXcH0K-11" value="1" style="text;html=1;align=center;verticalAlign=middle;resizable=0;points=[];autosize=1;strokeColor=none;fillColor=none;labelBackgroundColor=none;rounded=0;" vertex="1" parent="1">
          <mxGeometry x="199" y="780" width="30" height="30" as="geometry" />
        </mxCell>
        <mxCell id="-b-LSKTsYq41hwtXcH0K-12" value="n" style="text;html=1;align=center;verticalAlign=middle;resizable=0;points=[];autosize=1;strokeColor=none;fillColor=none;labelBackgroundColor=none;rounded=0;" vertex="1" parent="1">
          <mxGeometry x="199" y="650" width="30" height="30" as="geometry" />
        </mxCell>
        <mxCell id="-b-LSKTsYq41hwtXcH0K-15" value="n" style="text;html=1;align=center;verticalAlign=middle;resizable=0;points=[];autosize=1;strokeColor=none;fillColor=none;labelBackgroundColor=none;rounded=0;" vertex="1" parent="1">
          <mxGeometry x="315" y="550" width="30" height="30" as="geometry" />
        </mxCell>
        <mxCell id="-b-LSKTsYq41hwtXcH0K-16" value="m" style="text;html=1;align=center;verticalAlign=middle;resizable=0;points=[];autosize=1;strokeColor=none;fillColor=none;labelBackgroundColor=none;rounded=0;" vertex="1" parent="1">
          <mxGeometry x="470" y="550" width="30" height="30" as="geometry" />
        </mxCell>
        <mxCell id="-b-LSKTsYq41hwtXcH0K-17" value="RecipeCategory" style="rounded=0;whiteSpace=wrap;html=1;labelBackgroundColor=none;" vertex="1" parent="1">
          <mxGeometry x="560" y="830" width="160" height="90" as="geometry" />
        </mxCell>
        <mxCell id="-b-LSKTsYq41hwtXcH0K-19" style="edgeStyle=orthogonalEdgeStyle;rounded=0;orthogonalLoop=1;jettySize=auto;html=1;endArrow=none;endFill=0;startArrow=none;startFill=0;labelBackgroundColor=none;fontColor=default;" edge="1" parent="1" source="-b-LSKTsYq41hwtXcH0K-18" target="-b-LSKTsYq41hwtXcH0K-3">
          <mxGeometry relative="1" as="geometry" />
        </mxCell>
        <mxCell id="-b-LSKTsYq41hwtXcH0K-20" style="edgeStyle=orthogonalEdgeStyle;rounded=0;orthogonalLoop=1;jettySize=auto;html=1;endArrow=none;endFill=0;labelBackgroundColor=none;fontColor=default;" edge="1" parent="1" source="-b-LSKTsYq41hwtXcH0K-18" target="-b-LSKTsYq41hwtXcH0K-17">
          <mxGeometry relative="1" as="geometry" />
        </mxCell>
        <mxCell id="-b-LSKTsYq41hwtXcH0K-18" value="is" style="rhombus;whiteSpace=wrap;html=1;labelBackgroundColor=none;rounded=0;" vertex="1" parent="1">
          <mxGeometry x="600" y="690" width="80" height="80" as="geometry" />
        </mxCell>
        <mxCell id="-b-LSKTsYq41hwtXcH0K-21" value="n" style="text;html=1;align=center;verticalAlign=middle;resizable=0;points=[];autosize=1;strokeColor=none;fillColor=none;labelBackgroundColor=none;rounded=0;" vertex="1" parent="1">
          <mxGeometry x="640" y="650" width="30" height="30" as="geometry" />
        </mxCell>
        <mxCell id="-b-LSKTsYq41hwtXcH0K-22" value="1" style="text;html=1;align=center;verticalAlign=middle;resizable=0;points=[];autosize=1;strokeColor=none;fillColor=none;labelBackgroundColor=none;rounded=0;" vertex="1" parent="1">
          <mxGeometry x="640" y="780" width="30" height="30" as="geometry" />
        </mxCell>
        <mxCell id="-b-LSKTsYq41hwtXcH0K-28" style="rounded=0;orthogonalLoop=1;jettySize=auto;html=1;entryX=0.206;entryY=1.044;entryDx=0;entryDy=0;entryPerimeter=0;labelBackgroundColor=none;fontColor=default;" edge="1" parent="1" source="-b-LSKTsYq41hwtXcH0K-23" target="-b-LSKTsYq41hwtXcH0K-6">
          <mxGeometry relative="1" as="geometry" />
        </mxCell>
        <mxCell id="-b-LSKTsYq41hwtXcH0K-23" value="ID" style="ellipse;whiteSpace=wrap;html=1;labelBackgroundColor=none;rounded=0;" vertex="1" parent="1">
          <mxGeometry x="80" y="960" width="66" height="60" as="geometry" />
        </mxCell>
        <mxCell id="-b-LSKTsYq41hwtXcH0K-29" style="rounded=0;orthogonalLoop=1;jettySize=auto;html=1;entryX=0.694;entryY=0.989;entryDx=0;entryDy=0;entryPerimeter=0;labelBackgroundColor=none;fontColor=default;" edge="1" parent="1" source="-b-LSKTsYq41hwtXcH0K-24" target="-b-LSKTsYq41hwtXcH0K-6">
          <mxGeometry relative="1" as="geometry" />
        </mxCell>
        <mxCell id="-b-LSKTsYq41hwtXcH0K-24" value="Name" style="ellipse;whiteSpace=wrap;html=1;labelBackgroundColor=none;rounded=0;" vertex="1" parent="1">
          <mxGeometry x="229" y="960" width="66" height="60" as="geometry" />
        </mxCell>
        <mxCell id="-b-LSKTsYq41hwtXcH0K-32" style="rounded=0;orthogonalLoop=1;jettySize=auto;html=1;entryX=0.25;entryY=0;entryDx=0;entryDy=0;labelBackgroundColor=none;fontColor=default;" edge="1" parent="1" source="-b-LSKTsYq41hwtXcH0K-30" target="-b-LSKTsYq41hwtXcH0K-2">
          <mxGeometry relative="1" as="geometry" />
        </mxCell>
        <mxCell id="-b-LSKTsYq41hwtXcH0K-30" value="ID" style="ellipse;whiteSpace=wrap;html=1;labelBackgroundColor=none;rounded=0;" vertex="1" parent="1">
          <mxGeometry x="80" y="410" width="66" height="60" as="geometry" />
        </mxCell>
        <mxCell id="-b-LSKTsYq41hwtXcH0K-33" style="rounded=0;orthogonalLoop=1;jettySize=auto;html=1;entryX=0.713;entryY=0;entryDx=0;entryDy=0;entryPerimeter=0;labelBackgroundColor=none;fontColor=default;" edge="1" parent="1" source="-b-LSKTsYq41hwtXcH0K-31" target="-b-LSKTsYq41hwtXcH0K-2">
          <mxGeometry relative="1" as="geometry" />
        </mxCell>
        <mxCell id="-b-LSKTsYq41hwtXcH0K-31" value="Name" style="ellipse;whiteSpace=wrap;html=1;labelBackgroundColor=none;rounded=0;" vertex="1" parent="1">
          <mxGeometry x="249" y="420" width="66" height="60" as="geometry" />
        </mxCell>
        <mxCell id="-b-LSKTsYq41hwtXcH0K-36" style="rounded=0;orthogonalLoop=1;jettySize=auto;html=1;entryX=0.25;entryY=0;entryDx=0;entryDy=0;labelBackgroundColor=none;fontColor=default;" edge="1" parent="1" source="-b-LSKTsYq41hwtXcH0K-34" target="-b-LSKTsYq41hwtXcH0K-3">
          <mxGeometry relative="1" as="geometry" />
        </mxCell>
        <mxCell id="-b-LSKTsYq41hwtXcH0K-34" value="ID" style="ellipse;whiteSpace=wrap;html=1;labelBackgroundColor=none;rounded=0;" vertex="1" parent="1">
          <mxGeometry x="452" y="480" width="66" height="60" as="geometry" />
        </mxCell>
        <mxCell id="-b-LSKTsYq41hwtXcH0K-37" style="rounded=0;orthogonalLoop=1;jettySize=auto;html=1;entryX=0.694;entryY=0.011;entryDx=0;entryDy=0;entryPerimeter=0;labelBackgroundColor=none;fontColor=default;" edge="1" parent="1" source="-b-LSKTsYq41hwtXcH0K-35" target="-b-LSKTsYq41hwtXcH0K-3">
          <mxGeometry relative="1" as="geometry" />
        </mxCell>
        <mxCell id="-b-LSKTsYq41hwtXcH0K-35" value="Name" style="ellipse;whiteSpace=wrap;html=1;labelBackgroundColor=none;rounded=0;" vertex="1" parent="1">
          <mxGeometry x="670" y="410" width="66" height="60" as="geometry" />
        </mxCell>
        <mxCell id="-b-LSKTsYq41hwtXcH0K-40" style="rounded=0;orthogonalLoop=1;jettySize=auto;html=1;labelBackgroundColor=none;fontColor=default;" edge="1" parent="1" source="-b-LSKTsYq41hwtXcH0K-38" target="-b-LSKTsYq41hwtXcH0K-17">
          <mxGeometry relative="1" as="geometry" />
        </mxCell>
        <mxCell id="-b-LSKTsYq41hwtXcH0K-38" value="ID" style="ellipse;whiteSpace=wrap;html=1;labelBackgroundColor=none;rounded=0;" vertex="1" parent="1">
          <mxGeometry x="530" y="960" width="66" height="60" as="geometry" />
        </mxCell>
        <mxCell id="-b-LSKTsYq41hwtXcH0K-41" style="rounded=0;orthogonalLoop=1;jettySize=auto;html=1;entryX=0.675;entryY=0.989;entryDx=0;entryDy=0;entryPerimeter=0;labelBackgroundColor=none;fontColor=default;" edge="1" parent="1" source="-b-LSKTsYq41hwtXcH0K-39" target="-b-LSKTsYq41hwtXcH0K-17">
          <mxGeometry relative="1" as="geometry" />
        </mxCell>
        <mxCell id="-b-LSKTsYq41hwtXcH0K-39" value="Name" style="ellipse;whiteSpace=wrap;html=1;labelBackgroundColor=none;rounded=0;" vertex="1" parent="1">
          <mxGeometry x="696.5" y="960" width="66" height="60" as="geometry" />
        </mxCell>
        <mxCell id="-b-LSKTsYq41hwtXcH0K-43" style="rounded=0;orthogonalLoop=1;jettySize=auto;html=1;labelBackgroundColor=none;fontColor=default;" edge="1" parent="1" source="-b-LSKTsYq41hwtXcH0K-42" target="-b-LSKTsYq41hwtXcH0K-3">
          <mxGeometry relative="1" as="geometry" />
        </mxCell>
        <mxCell id="-b-LSKTsYq41hwtXcH0K-42" value="Difficulty" style="ellipse;whiteSpace=wrap;html=1;labelBackgroundColor=none;rounded=0;" vertex="1" parent="1">
          <mxGeometry x="687" y="670" width="66" height="60" as="geometry" />
        </mxCell>
        <mxCell id="-b-LSKTsYq41hwtXcH0K-45" style="rounded=0;orthogonalLoop=1;jettySize=auto;html=1;entryX=0.831;entryY=0;entryDx=0;entryDy=0;entryPerimeter=0;labelBackgroundColor=none;fontColor=default;" edge="1" parent="1" source="-b-LSKTsYq41hwtXcH0K-44" target="-b-LSKTsYq41hwtXcH0K-3">
          <mxGeometry relative="1" as="geometry" />
        </mxCell>
        <mxCell id="-b-LSKTsYq41hwtXcH0K-44" value="PrepTime" style="ellipse;whiteSpace=wrap;html=1;labelBackgroundColor=none;rounded=0;" vertex="1" parent="1">
          <mxGeometry x="746" y="460" width="66" height="60" as="geometry" />
        </mxCell>
        <mxCell id="-b-LSKTsYq41hwtXcH0K-58" style="rounded=0;orthogonalLoop=1;jettySize=auto;html=1;entryX=0.5;entryY=0;entryDx=0;entryDy=0;" edge="1" parent="1" source="-b-LSKTsYq41hwtXcH0K-57" target="-b-LSKTsYq41hwtXcH0K-2">
          <mxGeometry relative="1" as="geometry" />
        </mxCell>
        <mxCell id="-b-LSKTsYq41hwtXcH0K-57" value="Image" style="ellipse;whiteSpace=wrap;html=1;labelBackgroundColor=none;rounded=0;" vertex="1" parent="1">
          <mxGeometry x="166" y="380" width="66" height="60" as="geometry" />
        </mxCell>
        <mxCell id="-b-LSKTsYq41hwtXcH0K-60" style="rounded=0;orthogonalLoop=1;jettySize=auto;html=1;entryX=0.46;entryY=1.036;entryDx=0;entryDy=0;entryPerimeter=0;" edge="1" parent="1" source="-b-LSKTsYq41hwtXcH0K-59" target="-b-LSKTsYq41hwtXcH0K-6">
          <mxGeometry relative="1" as="geometry" />
        </mxCell>
        <mxCell id="-b-LSKTsYq41hwtXcH0K-59" value="Icon" style="ellipse;whiteSpace=wrap;html=1;labelBackgroundColor=none;rounded=0;" vertex="1" parent="1">
          <mxGeometry x="159" y="1010" width="66" height="60" as="geometry" />
        </mxCell>
        <mxCell id="-b-LSKTsYq41hwtXcH0K-62" style="rounded=0;orthogonalLoop=1;jettySize=auto;html=1;entryX=0.5;entryY=1;entryDx=0;entryDy=0;" edge="1" parent="1" source="-b-LSKTsYq41hwtXcH0K-61" target="-b-LSKTsYq41hwtXcH0K-17">
          <mxGeometry relative="1" as="geometry" />
        </mxCell>
        <mxCell id="-b-LSKTsYq41hwtXcH0K-61" value="Icon" style="ellipse;whiteSpace=wrap;html=1;labelBackgroundColor=none;rounded=0;" vertex="1" parent="1">
          <mxGeometry x="607" y="1020" width="66" height="60" as="geometry" />
        </mxCell>
        <mxCell id="-b-LSKTsYq41hwtXcH0K-66" style="rounded=0;orthogonalLoop=1;jettySize=auto;html=1;endArrow=none;endFill=0;" edge="1" parent="1" source="-b-LSKTsYq41hwtXcH0K-63" target="-b-LSKTsYq41hwtXcH0K-65">
          <mxGeometry relative="1" as="geometry" />
        </mxCell>
        <mxCell id="-b-LSKTsYq41hwtXcH0K-63" value="RecipeSteps" style="rounded=0;whiteSpace=wrap;html=1;labelBackgroundColor=none;" vertex="1" parent="1">
          <mxGeometry x="567" y="160" width="160" height="90" as="geometry" />
        </mxCell>
        <mxCell id="-b-LSKTsYq41hwtXcH0K-67" style="rounded=0;orthogonalLoop=1;jettySize=auto;html=1;entryX=0.551;entryY=-0.001;entryDx=0;entryDy=0;entryPerimeter=0;endArrow=none;endFill=0;" edge="1" parent="1" source="-b-LSKTsYq41hwtXcH0K-65" target="-b-LSKTsYq41hwtXcH0K-3">
          <mxGeometry relative="1" as="geometry" />
        </mxCell>
        <mxCell id="-b-LSKTsYq41hwtXcH0K-65" value="contains" style="rhombus;whiteSpace=wrap;html=1;labelBackgroundColor=none;rounded=0;" vertex="1" parent="1">
          <mxGeometry x="607" y="300" width="80" height="80" as="geometry" />
        </mxCell>
        <mxCell id="-b-LSKTsYq41hwtXcH0K-68" value="n" style="text;html=1;align=center;verticalAlign=middle;resizable=0;points=[];autosize=1;strokeColor=none;fillColor=none;labelBackgroundColor=none;rounded=0;" vertex="1" parent="1">
          <mxGeometry x="650" y="280" width="30" height="30" as="geometry" />
        </mxCell>
        <mxCell id="-b-LSKTsYq41hwtXcH0K-69" value="1" style="text;html=1;align=center;verticalAlign=middle;resizable=0;points=[];autosize=1;strokeColor=none;fillColor=none;labelBackgroundColor=none;rounded=0;" vertex="1" parent="1">
          <mxGeometry x="643" y="395" width="30" height="30" as="geometry" />
        </mxCell>
        <mxCell id="-b-LSKTsYq41hwtXcH0K-71" style="rounded=0;orthogonalLoop=1;jettySize=auto;html=1;endArrow=classic;endFill=1;" edge="1" parent="1" source="-b-LSKTsYq41hwtXcH0K-70" target="-b-LSKTsYq41hwtXcH0K-3">
          <mxGeometry relative="1" as="geometry" />
        </mxCell>
        <mxCell id="-b-LSKTsYq41hwtXcH0K-70" value="Description" style="ellipse;whiteSpace=wrap;html=1;labelBackgroundColor=none;rounded=0;" vertex="1" parent="1">
          <mxGeometry x="464" y="605" width="66" height="60" as="geometry" />
        </mxCell>
        <mxCell id="-b-LSKTsYq41hwtXcH0K-74" value="RecipeRating" style="rounded=0;whiteSpace=wrap;html=1;labelBackgroundColor=none;" vertex="1" parent="1">
          <mxGeometry x="1002" y="530" width="160" height="90" as="geometry" />
        </mxCell>
        <mxCell id="-b-LSKTsYq41hwtXcH0K-76" style="edgeStyle=orthogonalEdgeStyle;rounded=0;orthogonalLoop=1;jettySize=auto;html=1;endArrow=none;endFill=0;" edge="1" parent="1" source="-b-LSKTsYq41hwtXcH0K-75">
          <mxGeometry relative="1" as="geometry">
            <mxPoint x="720.0000000000005" y="565.0000000000002" as="targetPoint" />
          </mxGeometry>
        </mxCell>
        <mxCell id="-b-LSKTsYq41hwtXcH0K-77" style="edgeStyle=orthogonalEdgeStyle;rounded=0;orthogonalLoop=1;jettySize=auto;html=1;entryX=0.009;entryY=0.394;entryDx=0;entryDy=0;entryPerimeter=0;endArrow=none;endFill=0;" edge="1" parent="1" source="-b-LSKTsYq41hwtXcH0K-75" target="-b-LSKTsYq41hwtXcH0K-74">
          <mxGeometry relative="1" as="geometry" />
        </mxCell>
        <mxCell id="-b-LSKTsYq41hwtXcH0K-75" value="rated" style="rhombus;whiteSpace=wrap;html=1;labelBackgroundColor=none;rounded=0;" vertex="1" parent="1">
          <mxGeometry x="812" y="525" width="80" height="80" as="geometry" />
        </mxCell>
        <mxCell id="-b-LSKTsYq41hwtXcH0K-79" value="1" style="text;html=1;align=center;verticalAlign=middle;resizable=0;points=[];autosize=1;strokeColor=none;fillColor=none;labelBackgroundColor=none;rounded=0;" vertex="1" parent="1">
          <mxGeometry x="762.5" y="535" width="30" height="30" as="geometry" />
        </mxCell>
        <mxCell id="-b-LSKTsYq41hwtXcH0K-80" value="n" style="text;html=1;align=center;verticalAlign=middle;resizable=0;points=[];autosize=1;strokeColor=none;fillColor=none;labelBackgroundColor=none;rounded=0;" vertex="1" parent="1">
          <mxGeometry x="922" y="535" width="30" height="30" as="geometry" />
        </mxCell>
        <mxCell id="-b-LSKTsYq41hwtXcH0K-84" style="rounded=0;orthogonalLoop=1;jettySize=auto;html=1;entryX=0.25;entryY=0;entryDx=0;entryDy=0;" edge="1" parent="1" source="-b-LSKTsYq41hwtXcH0K-83" target="-b-LSKTsYq41hwtXcH0K-74">
          <mxGeometry relative="1" as="geometry" />
        </mxCell>
        <mxCell id="-b-LSKTsYq41hwtXcH0K-83" value="Rating" style="ellipse;whiteSpace=wrap;html=1;labelBackgroundColor=none;rounded=0;" vertex="1" parent="1">
          <mxGeometry x="904" y="420" width="66" height="60" as="geometry" />
        </mxCell>
        <mxCell id="-b-LSKTsYq41hwtXcH0K-86" style="rounded=0;orthogonalLoop=1;jettySize=auto;html=1;entryX=0.863;entryY=-0.001;entryDx=0;entryDy=0;entryPerimeter=0;" edge="1" parent="1" source="-b-LSKTsYq41hwtXcH0K-85" target="-b-LSKTsYq41hwtXcH0K-74">
          <mxGeometry relative="1" as="geometry" />
        </mxCell>
        <mxCell id="-b-LSKTsYq41hwtXcH0K-85" value="Comment" style="ellipse;whiteSpace=wrap;html=1;labelBackgroundColor=none;rounded=0;" vertex="1" parent="1">
          <mxGeometry x="1172" y="390" width="66" height="60" as="geometry" />
        </mxCell>
        <mxCell id="-b-LSKTsYq41hwtXcH0K-88" style="rounded=0;orthogonalLoop=1;jettySize=auto;html=1;entryX=0.606;entryY=-0.038;entryDx=0;entryDy=0;entryPerimeter=0;" edge="1" parent="1" source="-b-LSKTsYq41hwtXcH0K-87" target="-b-LSKTsYq41hwtXcH0K-74">
          <mxGeometry relative="1" as="geometry" />
        </mxCell>
        <mxCell id="-b-LSKTsYq41hwtXcH0K-87" value="Date" style="ellipse;whiteSpace=wrap;html=1;labelBackgroundColor=none;rounded=0;" vertex="1" parent="1">
          <mxGeometry x="1082" y="350" width="66" height="60" as="geometry" />
        </mxCell>
        <mxCell id="-b-LSKTsYq41hwtXcH0K-89" value="PlanedRecipe" style="rounded=0;whiteSpace=wrap;html=1;labelBackgroundColor=none;" vertex="1" parent="1">
          <mxGeometry x="934.5" y="810" width="160" height="90" as="geometry" />
        </mxCell>
        <mxCell id="-b-LSKTsYq41hwtXcH0K-114" style="rounded=0;orthogonalLoop=1;jettySize=auto;html=1;entryX=0.389;entryY=-0.027;entryDx=0;entryDy=0;entryPerimeter=0;" edge="1" parent="1" source="-b-LSKTsYq41hwtXcH0K-106" target="-b-LSKTsYq41hwtXcH0K-63">
          <mxGeometry relative="1" as="geometry" />
        </mxCell>
        <mxCell id="-b-LSKTsYq41hwtXcH0K-106" value="Description" style="ellipse;whiteSpace=wrap;html=1;labelBackgroundColor=none;rounded=0;" vertex="1" parent="1">
          <mxGeometry x="541" width="66" height="60" as="geometry" />
        </mxCell>
        <mxCell id="-b-LSKTsYq41hwtXcH0K-115" style="rounded=0;orthogonalLoop=1;jettySize=auto;html=1;" edge="1" parent="1" source="-b-LSKTsYq41hwtXcH0K-107" target="-b-LSKTsYq41hwtXcH0K-63">
          <mxGeometry relative="1" as="geometry" />
        </mxCell>
        <mxCell id="-b-LSKTsYq41hwtXcH0K-107" value="ID" style="ellipse;whiteSpace=wrap;html=1;labelBackgroundColor=none;rounded=0;" vertex="1" parent="1">
          <mxGeometry x="470" y="70" width="66" height="60" as="geometry" />
        </mxCell>
        <mxCell id="-b-LSKTsYq41hwtXcH0K-109" style="rounded=0;orthogonalLoop=1;jettySize=auto;html=1;entryX=0.988;entryY=0.419;entryDx=0;entryDy=0;entryPerimeter=0;" edge="1" parent="1" source="-b-LSKTsYq41hwtXcH0K-108" target="-b-LSKTsYq41hwtXcH0K-74">
          <mxGeometry relative="1" as="geometry" />
        </mxCell>
        <mxCell id="-b-LSKTsYq41hwtXcH0K-108" value="ID" style="ellipse;whiteSpace=wrap;html=1;labelBackgroundColor=none;rounded=0;" vertex="1" parent="1">
          <mxGeometry x="1202" y="475" width="66" height="60" as="geometry" />
        </mxCell>
        <mxCell id="-b-LSKTsYq41hwtXcH0K-113" style="rounded=0;orthogonalLoop=1;jettySize=auto;html=1;" edge="1" parent="1" source="-b-LSKTsYq41hwtXcH0K-110" target="-b-LSKTsYq41hwtXcH0K-63">
          <mxGeometry relative="1" as="geometry" />
        </mxCell>
        <mxCell id="-b-LSKTsYq41hwtXcH0K-110" value="Name" style="ellipse;whiteSpace=wrap;html=1;labelBackgroundColor=none;rounded=0;" vertex="1" parent="1">
          <mxGeometry x="661" width="66" height="60" as="geometry" />
        </mxCell>
        <mxCell id="-b-LSKTsYq41hwtXcH0K-112" style="rounded=0;orthogonalLoop=1;jettySize=auto;html=1;" edge="1" parent="1" source="-b-LSKTsYq41hwtXcH0K-111" target="-b-LSKTsYq41hwtXcH0K-74">
          <mxGeometry relative="1" as="geometry" />
        </mxCell>
        <mxCell id="-b-LSKTsYq41hwtXcH0K-111" value="Title" style="ellipse;whiteSpace=wrap;html=1;labelBackgroundColor=none;rounded=0;" vertex="1" parent="1">
          <mxGeometry x="982" y="360" width="66" height="60" as="geometry" />
        </mxCell>
        <mxCell id="-b-LSKTsYq41hwtXcH0K-117" style="rounded=0;orthogonalLoop=1;jettySize=auto;html=1;entryX=0.868;entryY=-0.015;entryDx=0;entryDy=0;entryPerimeter=0;" edge="1" parent="1" source="-b-LSKTsYq41hwtXcH0K-116" target="-b-LSKTsYq41hwtXcH0K-63">
          <mxGeometry relative="1" as="geometry" />
        </mxCell>
        <mxCell id="-b-LSKTsYq41hwtXcH0K-116" value="Image" style="ellipse;whiteSpace=wrap;html=1;labelBackgroundColor=none;rounded=0;" vertex="1" parent="1">
          <mxGeometry x="746" y="40" width="66" height="60" as="geometry" />
        </mxCell>
        <mxCell id="-b-LSKTsYq41hwtXcH0K-120" style="rounded=0;orthogonalLoop=1;jettySize=auto;html=1;entryX=0.905;entryY=1.036;entryDx=0;entryDy=0;entryPerimeter=0;endArrow=none;endFill=0;" edge="1" parent="1" source="-b-LSKTsYq41hwtXcH0K-119" target="-b-LSKTsYq41hwtXcH0K-3">
          <mxGeometry relative="1" as="geometry" />
        </mxCell>
        <mxCell id="-b-LSKTsYq41hwtXcH0K-121" style="rounded=0;orthogonalLoop=1;jettySize=auto;html=1;endArrow=none;endFill=0;" edge="1" parent="1" source="-b-LSKTsYq41hwtXcH0K-119" target="-b-LSKTsYq41hwtXcH0K-89">
          <mxGeometry relative="1" as="geometry">
            <mxPoint x="1000" y="870" as="targetPoint" />
          </mxGeometry>
        </mxCell>
        <mxCell id="-b-LSKTsYq41hwtXcH0K-119" value="isPlanned" style="rhombus;whiteSpace=wrap;html=1;labelBackgroundColor=none;rounded=0;" vertex="1" parent="1">
          <mxGeometry x="792.5" y="680" width="80" height="80" as="geometry" />
        </mxCell>
        <mxCell id="-b-LSKTsYq41hwtXcH0K-122" value="1" style="text;html=1;align=center;verticalAlign=middle;resizable=0;points=[];autosize=1;strokeColor=none;fillColor=none;labelBackgroundColor=none;rounded=0;" vertex="1" parent="1">
          <mxGeometry x="762.5" y="650" width="30" height="30" as="geometry" />
        </mxCell>
        <mxCell id="-b-LSKTsYq41hwtXcH0K-123" value="n" style="text;html=1;align=center;verticalAlign=middle;resizable=0;points=[];autosize=1;strokeColor=none;fillColor=none;labelBackgroundColor=none;rounded=0;" vertex="1" parent="1">
          <mxGeometry x="892" y="750" width="30" height="30" as="geometry" />
        </mxCell>
        <mxCell id="-b-LSKTsYq41hwtXcH0K-125" style="rounded=0;orthogonalLoop=1;jettySize=auto;html=1;entryX=0.25;entryY=1;entryDx=0;entryDy=0;" edge="1" parent="1" source="-b-LSKTsYq41hwtXcH0K-124" target="-b-LSKTsYq41hwtXcH0K-89">
          <mxGeometry relative="1" as="geometry" />
        </mxCell>
        <mxCell id="-b-LSKTsYq41hwtXcH0K-124" value="Date" style="ellipse;whiteSpace=wrap;html=1;labelBackgroundColor=none;rounded=0;" vertex="1" parent="1">
          <mxGeometry x="872.5" y="950" width="66" height="60" as="geometry" />
        </mxCell>
        <mxCell id="-b-LSKTsYq41hwtXcH0K-127" style="rounded=0;orthogonalLoop=1;jettySize=auto;html=1;entryX=0.448;entryY=1.023;entryDx=0;entryDy=0;entryPerimeter=0;" edge="1" parent="1" source="-b-LSKTsYq41hwtXcH0K-126" target="-b-LSKTsYq41hwtXcH0K-89">
          <mxGeometry relative="1" as="geometry">
            <mxPoint x="985.5" y="910" as="targetPoint" />
          </mxGeometry>
        </mxCell>
        <mxCell id="-b-LSKTsYq41hwtXcH0K-126" value="ID" style="ellipse;whiteSpace=wrap;html=1;labelBackgroundColor=none;rounded=0;" vertex="1" parent="1">
          <mxGeometry x="962.5" y="980" width="66" height="60" as="geometry" />
        </mxCell>
        <mxCell id="-b-LSKTsYq41hwtXcH0K-129" style="rounded=0;orthogonalLoop=1;jettySize=auto;html=1;entryX=0.823;entryY=0.999;entryDx=0;entryDy=0;entryPerimeter=0;" edge="1" parent="1" source="-b-LSKTsYq41hwtXcH0K-128" target="-b-LSKTsYq41hwtXcH0K-89">
          <mxGeometry relative="1" as="geometry" />
        </mxCell>
        <mxCell id="-b-LSKTsYq41hwtXcH0K-128" value="Meal" style="ellipse;whiteSpace=wrap;html=1;labelBackgroundColor=none;rounded=0;" vertex="1" parent="1">
          <mxGeometry x="1058.5" y="980" width="66" height="60" as="geometry" />
        </mxCell>
        <mxCell id="-b-LSKTsYq41hwtXcH0K-132" style="rounded=0;orthogonalLoop=1;jettySize=auto;html=1;entryX=1;entryY=0.75;entryDx=0;entryDy=0;" edge="1" parent="1" source="-b-LSKTsYq41hwtXcH0K-131" target="-b-LSKTsYq41hwtXcH0K-89">
          <mxGeometry relative="1" as="geometry" />
        </mxCell>
        <mxCell id="-b-LSKTsYq41hwtXcH0K-131" value="Comment" style="ellipse;whiteSpace=wrap;html=1;labelBackgroundColor=none;rounded=0;" vertex="1" parent="1">
          <mxGeometry x="1142.5" y="940" width="66" height="60" as="geometry" />
        </mxCell>
        <mxCell id="-b-LSKTsYq41hwtXcH0K-134" style="rounded=0;orthogonalLoop=1;jettySize=auto;html=1;entryX=0.987;entryY=0.667;entryDx=0;entryDy=0;entryPerimeter=0;" edge="1" parent="1" source="-b-LSKTsYq41hwtXcH0K-133" target="-b-LSKTsYq41hwtXcH0K-89">
          <mxGeometry relative="1" as="geometry" />
        </mxCell>
        <mxCell id="-b-LSKTsYq41hwtXcH0K-133" value="PortionCount" style="ellipse;whiteSpace=wrap;html=1;labelBackgroundColor=none;rounded=0;" vertex="1" parent="1">
          <mxGeometry x="1152.5" y="840" width="82" height="80" as="geometry" />
        </mxCell>
        <mxCell id="-b-LSKTsYq41hwtXcH0K-136" style="edgeStyle=none;shape=connector;rounded=0;orthogonalLoop=1;jettySize=auto;html=1;entryX=0;entryY=0.5;entryDx=0;entryDy=0;labelBackgroundColor=none;strokeColor=default;fontFamily=Helvetica;fontSize=11;fontColor=default;endArrow=classic;" edge="1" parent="1" source="-b-LSKTsYq41hwtXcH0K-135" target="-b-LSKTsYq41hwtXcH0K-2">
          <mxGeometry relative="1" as="geometry" />
        </mxCell>
        <mxCell id="-b-LSKTsYq41hwtXcH0K-135" value="Count" style="ellipse;whiteSpace=wrap;html=1;labelBackgroundColor=none;rounded=0;" vertex="1" parent="1">
          <mxGeometry x="30" y="490" width="66" height="60" as="geometry" />
        </mxCell>
        <mxCell id="-b-LSKTsYq41hwtXcH0K-138" style="edgeStyle=none;shape=connector;rounded=0;orthogonalLoop=1;jettySize=auto;html=1;entryX=0.103;entryY=1.036;entryDx=0;entryDy=0;entryPerimeter=0;labelBackgroundColor=none;strokeColor=default;fontFamily=Helvetica;fontSize=11;fontColor=default;endArrow=classic;" edge="1" parent="1" source="-b-LSKTsYq41hwtXcH0K-137" target="-b-LSKTsYq41hwtXcH0K-2">
          <mxGeometry relative="1" as="geometry" />
        </mxCell>
        <mxCell id="-b-LSKTsYq41hwtXcH0K-137" value="CountType" style="ellipse;whiteSpace=wrap;html=1;labelBackgroundColor=none;rounded=0;" vertex="1" parent="1">
          <mxGeometry x="30" y="630" width="80" height="70" as="geometry" />
        </mxCell>
        <mxCell id="-b-LSKTsYq41hwtXcH0K-140" style="edgeStyle=none;shape=connector;rounded=0;orthogonalLoop=1;jettySize=auto;html=1;entryX=0.998;entryY=0.431;entryDx=0;entryDy=0;entryPerimeter=0;labelBackgroundColor=none;strokeColor=default;fontFamily=Helvetica;fontSize=11;fontColor=default;endArrow=classic;" edge="1" parent="1" source="-b-LSKTsYq41hwtXcH0K-139" target="-b-LSKTsYq41hwtXcH0K-63">
          <mxGeometry relative="1" as="geometry" />
        </mxCell>
        <mxCell id="-b-LSKTsYq41hwtXcH0K-139" value="Position" style="ellipse;whiteSpace=wrap;html=1;labelBackgroundColor=none;rounded=0;" vertex="1" parent="1">
          <mxGeometry x="792.5" y="120" width="66" height="60" as="geometry" />
        </mxCell>
        <mxCell id="-b-LSKTsYq41hwtXcH0K-142" style="edgeStyle=none;shape=connector;rounded=0;orthogonalLoop=1;jettySize=auto;html=1;labelBackgroundColor=none;strokeColor=default;fontFamily=Helvetica;fontSize=11;fontColor=default;endArrow=classic;" edge="1" parent="1" source="-b-LSKTsYq41hwtXcH0K-141" target="-b-LSKTsYq41hwtXcH0K-3">
          <mxGeometry relative="1" as="geometry" />
        </mxCell>
        <mxCell id="-b-LSKTsYq41hwtXcH0K-141" value="MealType" style="ellipse;whiteSpace=wrap;html=1;labelBackgroundColor=none;rounded=0;" vertex="1" parent="1">
          <mxGeometry x="560" y="370" width="66" height="60" as="geometry" />
        </mxCell>
        <mxCell id="-b-LSKTsYq41hwtXcH0K-143" value="RecipeImage" style="rounded=0;whiteSpace=wrap;html=1;labelBackgroundColor=none;" vertex="1" parent="1">
          <mxGeometry x="340" y="830" width="160" height="90" as="geometry" />
        </mxCell>
        <mxCell id="-b-LSKTsYq41hwtXcH0K-145" style="edgeStyle=none;shape=connector;rounded=0;orthogonalLoop=1;jettySize=auto;html=1;entryX=0.5;entryY=0;entryDx=0;entryDy=0;labelBackgroundColor=none;strokeColor=default;fontFamily=Helvetica;fontSize=11;fontColor=default;endArrow=none;endFill=0;" edge="1" parent="1" source="-b-LSKTsYq41hwtXcH0K-144" target="-b-LSKTsYq41hwtXcH0K-143">
          <mxGeometry relative="1" as="geometry" />
        </mxCell>
        <mxCell id="-b-LSKTsYq41hwtXcH0K-146" style="edgeStyle=none;shape=connector;rounded=0;orthogonalLoop=1;jettySize=auto;html=1;entryX=0.299;entryY=1.023;entryDx=0;entryDy=0;entryPerimeter=0;labelBackgroundColor=none;strokeColor=default;fontFamily=Helvetica;fontSize=11;fontColor=default;endArrow=none;endFill=0;" edge="1" parent="1" source="-b-LSKTsYq41hwtXcH0K-144" target="-b-LSKTsYq41hwtXcH0K-3">
          <mxGeometry relative="1" as="geometry" />
        </mxCell>
        <mxCell id="-b-LSKTsYq41hwtXcH0K-144" value="has" style="rhombus;whiteSpace=wrap;html=1;labelBackgroundColor=none;rounded=0;" vertex="1" parent="1">
          <mxGeometry x="470" y="690" width="80" height="80" as="geometry" />
        </mxCell>
        <mxCell id="-b-LSKTsYq41hwtXcH0K-148" value="n" style="text;html=1;align=center;verticalAlign=middle;resizable=0;points=[];autosize=1;strokeColor=none;fillColor=none;labelBackgroundColor=none;rounded=0;" vertex="1" parent="1">
          <mxGeometry x="440" y="760" width="30" height="30" as="geometry" />
        </mxCell>
        <mxCell id="-b-LSKTsYq41hwtXcH0K-149" value="1" style="text;html=1;align=center;verticalAlign=middle;resizable=0;points=[];autosize=1;strokeColor=none;fillColor=none;labelBackgroundColor=none;rounded=0;" vertex="1" parent="1">
          <mxGeometry x="541" y="650" width="30" height="30" as="geometry" />
        </mxCell>
        <mxCell id="-b-LSKTsYq41hwtXcH0K-155" style="edgeStyle=none;shape=connector;rounded=0;orthogonalLoop=1;jettySize=auto;html=1;labelBackgroundColor=none;strokeColor=default;fontFamily=Helvetica;fontSize=11;fontColor=default;endArrow=classic;" edge="1" parent="1" source="-b-LSKTsYq41hwtXcH0K-150" target="-b-LSKTsYq41hwtXcH0K-143">
          <mxGeometry relative="1" as="geometry" />
        </mxCell>
        <mxCell id="-b-LSKTsYq41hwtXcH0K-150" value="ID" style="ellipse;whiteSpace=wrap;html=1;labelBackgroundColor=none;rounded=0;" vertex="1" parent="1">
          <mxGeometry x="315" y="950" width="66" height="60" as="geometry" />
        </mxCell>
        <mxCell id="-b-LSKTsYq41hwtXcH0K-154" style="edgeStyle=none;shape=connector;rounded=0;orthogonalLoop=1;jettySize=auto;html=1;labelBackgroundColor=none;strokeColor=default;fontFamily=Helvetica;fontSize=11;fontColor=default;endArrow=classic;" edge="1" parent="1" source="-b-LSKTsYq41hwtXcH0K-151" target="-b-LSKTsYq41hwtXcH0K-143">
          <mxGeometry relative="1" as="geometry" />
        </mxCell>
        <mxCell id="-b-LSKTsYq41hwtXcH0K-151" value="Source" style="ellipse;whiteSpace=wrap;html=1;labelBackgroundColor=none;rounded=0;" vertex="1" parent="1">
          <mxGeometry x="374" y="1010" width="66" height="60" as="geometry" />
        </mxCell>
        <mxCell id="-b-LSKTsYq41hwtXcH0K-153" style="edgeStyle=none;shape=connector;rounded=0;orthogonalLoop=1;jettySize=auto;html=1;labelBackgroundColor=none;strokeColor=default;fontFamily=Helvetica;fontSize=11;fontColor=default;endArrow=classic;" edge="1" parent="1" source="-b-LSKTsYq41hwtXcH0K-152" target="-b-LSKTsYq41hwtXcH0K-143">
          <mxGeometry relative="1" as="geometry" />
        </mxCell>
        <mxCell id="-b-LSKTsYq41hwtXcH0K-152" value="Position" style="ellipse;whiteSpace=wrap;html=1;labelBackgroundColor=none;rounded=0;" vertex="1" parent="1">
          <mxGeometry x="440" y="970" width="66" height="60" as="geometry" />
        </mxCell>
        <mxCell id="-b-LSKTsYq41hwtXcH0K-156" value="RecipeTag" style="rounded=0;whiteSpace=wrap;html=1;labelBackgroundColor=none;" vertex="1" parent="1">
          <mxGeometry x="304" y="200" width="160" height="90" as="geometry" />
        </mxCell>
        <mxCell id="-b-LSKTsYq41hwtXcH0K-158" style="edgeStyle=none;shape=connector;rounded=0;orthogonalLoop=1;jettySize=auto;html=1;labelBackgroundColor=none;strokeColor=default;fontFamily=Helvetica;fontSize=11;fontColor=default;endArrow=none;endFill=0;" edge="1" parent="1" source="-b-LSKTsYq41hwtXcH0K-157" target="-b-LSKTsYq41hwtXcH0K-156">
          <mxGeometry relative="1" as="geometry">
            <mxPoint x="320" y="290.0000000000002" as="targetPoint" />
          </mxGeometry>
        </mxCell>
        <mxCell id="-b-LSKTsYq41hwtXcH0K-159" style="edgeStyle=none;shape=connector;rounded=0;orthogonalLoop=1;jettySize=auto;html=1;labelBackgroundColor=none;strokeColor=default;fontFamily=Helvetica;fontSize=11;fontColor=default;endArrow=none;endFill=0;" edge="1" parent="1" source="-b-LSKTsYq41hwtXcH0K-157" target="-b-LSKTsYq41hwtXcH0K-3">
          <mxGeometry relative="1" as="geometry" />
        </mxCell>
        <mxCell id="-b-LSKTsYq41hwtXcH0K-157" value="tagged" style="rhombus;whiteSpace=wrap;html=1;labelBackgroundColor=none;rounded=0;" vertex="1" parent="1">
          <mxGeometry x="445" y="340" width="80" height="80" as="geometry" />
        </mxCell>
        <mxCell id="-b-LSKTsYq41hwtXcH0K-160" value="n" style="text;html=1;align=center;verticalAlign=middle;resizable=0;points=[];autosize=1;strokeColor=none;fillColor=none;labelBackgroundColor=none;rounded=0;" vertex="1" parent="1">
          <mxGeometry x="440" y="300" width="30" height="30" as="geometry" />
        </mxCell>
        <mxCell id="-b-LSKTsYq41hwtXcH0K-161" value="m" style="text;html=1;align=center;verticalAlign=middle;resizable=0;points=[];autosize=1;strokeColor=none;fillColor=none;labelBackgroundColor=none;rounded=0;" vertex="1" parent="1">
          <mxGeometry x="550" y="445" width="30" height="30" as="geometry" />
        </mxCell>
        <mxCell id="-b-LSKTsYq41hwtXcH0K-164" style="edgeStyle=none;shape=connector;rounded=0;orthogonalLoop=1;jettySize=auto;html=1;labelBackgroundColor=none;strokeColor=default;fontFamily=Helvetica;fontSize=11;fontColor=default;endArrow=classic;" edge="1" parent="1" source="-b-LSKTsYq41hwtXcH0K-162" target="-b-LSKTsYq41hwtXcH0K-156">
          <mxGeometry relative="1" as="geometry" />
        </mxCell>
        <mxCell id="-b-LSKTsYq41hwtXcH0K-162" value="ID" style="ellipse;whiteSpace=wrap;html=1;labelBackgroundColor=none;rounded=0;" vertex="1" parent="1">
          <mxGeometry x="213" y="140" width="66" height="60" as="geometry" />
        </mxCell>
        <mxCell id="-b-LSKTsYq41hwtXcH0K-165" style="edgeStyle=none;shape=connector;rounded=0;orthogonalLoop=1;jettySize=auto;html=1;labelBackgroundColor=none;strokeColor=default;fontFamily=Helvetica;fontSize=11;fontColor=default;endArrow=classic;" edge="1" parent="1" source="-b-LSKTsYq41hwtXcH0K-163" target="-b-LSKTsYq41hwtXcH0K-156">
          <mxGeometry relative="1" as="geometry" />
        </mxCell>
        <mxCell id="-b-LSKTsYq41hwtXcH0K-163" value="Name" style="ellipse;whiteSpace=wrap;html=1;labelBackgroundColor=none;rounded=0;" vertex="1" parent="1">
          <mxGeometry x="340" y="100" width="66" height="60" as="geometry" />
        </mxCell>
      </root>
    </mxGraphModel>
  </diagram>
</mxfile>
